<?xml version="1.0" encoding="iso-8859-1"?>
<!-- Uploaded to: SVG Repo, www.svgrepo.com, Generator: SVG Repo Mixer Tools -->
<svg fill="#000000" height="800px" width="800px" version="1.1" id="Layer_1" xmlns="http://www.w3.org/2000/svg" xmlns:xlink="http://www.w3.org/1999/xlink" 
	 viewBox="0 0 512.001 512.001" xml:space="preserve">
<g>
	<g>
		<path d="M216.942,220.889c-0.247-11.356-9.629-20.691-21.295-20.513l-72.569,1.124l-32.262-46.956l37.527,32.492l16.341-0.253
			v-46.516c0-16.224-13.152-29.375-29.375-29.375H62.923c-18.734,0-31.286,17.439-29.375,30.577v149.746l9.508,76.683L1.813,467.997
			c-5.042,12.239,0.791,26.248,13.03,31.29c12.238,5.043,26.249-0.793,31.291-13.03l43.641-105.924
			c1.573-3.819,2.133-7.979,1.625-12.079l-7.5-60.492h18.616l6.748,51.674L85.392,472.162c-2.743,12.95,5.532,25.67,18.482,28.412
			c12.974,2.745,25.676-5.552,28.412-18.482l23.227-109.681c-8.627-12.158-14.516-26.584-16.942-41.935
			c-2.18-13.808,0.713-30.915,8.589-51.015l-2.479-21.945c-33.026,0.51-35.804,1.281-43.598-1.289
			c-10.162-3.351-17.6-11.277-19.624-16.474l-22.226-57.071l35.627,51.852c3.93,5.721,10.573,9.207,17.618,9.097l83.817-1.299
			c11.716-0.18,20.832-9.895,20.654-21.303C216.95,220.982,216.943,220.936,216.942,220.889z"/>
	</g>
</g>
<g>
	<g>
		<path d="M89.344,10.901c-24.016,0-43.485,19.469-43.485,43.485c0,24.098,19.584,43.485,43.485,43.485
			c23.902,0,43.485-19.387,43.485-43.485C132.829,30.37,113.36,10.901,89.344,10.901z"/>
	</g>
</g>
<g>
	<g>
		<path d="M201.262,156.546l-19.722,3.115c-5.42,0.856-8.496,6.682-6.166,11.637l7.008,14.901
			c13.153-0.204,17.954-0.849,25.501,1.844l2.833-22.329C211.407,160.262,206.659,155.692,201.262,156.546z"/>
	</g>
</g>
<g>
	<g>
		<path d="M280.01,308.131c-3.813-24.137-30.969-52.065-52.494-70.838c-5.953,11.771-17.844,19.219-30.997,19.42l-22.218,0.344
			c-12.51,22.924-24.145,50.812-20.943,71.083c6.44,40.764,40.009,69.344,74.99,63.818
			C263.32,386.432,286.451,348.902,280.01,308.131z"/>
	</g>
</g>
<g>
	<g>
		<path d="M458.532,412.653c-16.826,0-31.484,9.447-38.957,23.316c1.64,4.563,2.816,8.978,3.487,13.225
			c1.785,11.301,1.665,22.597-0.337,33.59c8.044,11.087,21.093,18.316,35.807,18.316c24.386,0,44.224-19.839,44.224-44.224
			C502.756,432.491,482.918,412.653,458.532,412.653z M458.532,475.959c-10.522,0-19.082-8.56-19.082-19.083
			c0-10.522,8.56-19.082,19.082-19.082s19.083,8.56,19.083,19.082S469.054,475.959,458.532,475.959z"/>
	</g>
</g>
<g>
	<g>
		<path d="M498.759,221.541h-11.397c1.026-1.881,1.611-4.038,1.611-6.332c0-7.313-5.928-13.241-13.241-13.241H336.088
			c-7.313,0-13.241,5.928-13.241,13.241c0,2.294,0.584,4.451,1.611,6.332h-11.397c-7.313,0-13.241,5.928-13.241,13.241
			c0,7.313,5.928,13.241,13.241,13.241h1.527l4.432,38.43l8.175-1.291c14.787-2.335,27.865,9.738,26.756,24.656l-0.014,42.797
			c9.479,7.919,22.604,20.423,34.42,34.11c8.605,9.968,15.649,19.504,21.138,28.572c11.81-13.907,29.406-22.757,49.039-22.757
			c7.741,0,15.167,1.376,22.048,3.893l16.69-148.41h1.489c7.313,0,13.241-5.928,13.241-13.241
			C512,227.469,506.072,221.541,498.759,221.541z"/>
	</g>
</g>
<g>
	<g>
		<path d="M408.28,451.529c-5.59-35.371-54.649-80.793-69.313-91.702l0.017-50.713c0.69-5.441-4.04-10.025-9.453-9.169
			l-19.722,3.115c-5.419,0.856-8.496,6.682-6.166,11.637l14.313,48.871c-10.587,14.898-41.917,72.599-36.33,107.969
			c0.62,3.927,1.494,7.74,2.596,11.42c3.004,10.034,12.226,16.886,22.7,16.886h77.723c11.386,0,21.182-8.101,23.285-19.291
			C409.655,471.358,409.862,461.542,408.28,451.529z"/>
	</g>
</g>
</svg>