<?xml version="1.0" encoding="utf-8"?>
<!-- Uploaded to: SVG Repo, www.svgrepo.com, Generator: SVG Repo Mixer Tools -->
<svg fill="#000000" version="1.1" id="Layer_1" xmlns="http://www.w3.org/2000/svg" xmlns:xlink="http://www.w3.org/1999/xlink" 
	 width="800px" height="800px" viewBox="0 0 184 260" enable-background="new 0 0 184 260" xml:space="preserve">
<path d="M173.559,18.293l4.547-11.107l-5.589-2.558l-11.272-0.473L154.803,2l-4.831,4.215l-10.254,3.008l-8.573,15.63l-8.904-0.261
	l-1.895,1.989l0.735,6.465l-3.6,3.34l-2.937-3.529l-10.751,10.065l-0.61,1.591l-4.718-1.97l-3.647,3.765l1.586,4.073l5.039-1.326
	l-3.121,8.147l-3.978,4.547l-4.476,11.272l-6.797,2.889l2.203,4.429l-8.715,12.433l-9.544,24.463l2.368,4.05l-3.197,7.838
	l-0.213-0.213l-6.263,2.513l-14.814,20.459l5.329,4.381l5.612,1.8l-7.602,0.307l-2.107-4.049l-7.649,3.813l0.568,4.073l-0.166,0.142
	l-11.556,4.973L4.069,187.499l1.705,5.21l-1.279,24.368l2.926,3.795l-4.986,8.567l5.873,7.792l-4.239,5.849l1.847,4.5l6.418,5.068
	l1.942,3.907L23.654,258l6.441-2.321L46.01,240.12l4.666-1.989l1.255-4.097l-1.492-6.442l4.452-2.723l-0.663,6.678l1.302,5.92
	l5.21,1.161l4.168-2.818l-1.349-5.731l1.847-4.594l5.707-5.921l0.568-7.389l-3.291-8.549l3.789-1.208l1.563-6.18l-6.513-6.395
	l-0.71-34.741l4.026-6.749l4.405-2.652l5.802,1.255l0.994-8.076l-3.907-2.463l4.926-10.088l1.61-13.664l-1.113-5.187l6.844-3.244
	l-0.711-3.979l6.347-10.988l-2.676-6.655l7.152-13.451l5.707-1.634l-0.71-7.033l12.267,1.87l1.776-2.676l-0.616-8.051l5.21-8.052
	l4.855,3.386l5.471,5.423l4.404,1.137l4.074-4.641l8.573,1.468l2.415-5.329l-1.279-15.298l1.871-4.76l3.813-0.711l4.026-4.428
	l4.547,3.884l5.186,0.923l6.583,4.097l2.771-4.428l0.403-5.447L173.559,18.293z M93.681,60.967l-0.853-4.949l-3.718-1.682
	l-2.51,6.892l3.813,3.528L93.681,60.967z"/>
</svg>